<svg width="60" height="60" viewBox="0 0 60 60" xmlns="http://www.w3.org/2000/svg">
  <!-- Elegant jewelry-themed pattern -->
  <g fill="none" stroke="currentColor" stroke-width="0.5" opacity="0.15">
    <!-- Diamond shapes -->
    <path d="M30 5 L35 15 L30 25 L25 15 Z" />
    <path d="M5 30 L15 35 L25 30 L15 25 Z" />
    <path d="M55 30 L45 35 L35 30 L45 25 Z" />
    <path d="M30 35 L35 45 L30 55 L25 45 Z" />

    <!-- Connecting lines -->
    <line x1="30" y1="25" x2="25" y2="30" />
    <line x1="30" y1="25" x2="35" y2="30" />
    <line x1="25" y1="30" x2="30" y2="35" />
    <line x1="35" y1="30" x2="30" y2="35" />

    <!-- Corner decorations -->
    <circle cx="10" cy="10" r="2" fill="currentColor" opacity="0.1" />
    <circle cx="50" cy="10" r="2" fill="currentColor" opacity="0.1" />
    <circle cx="10" cy="50" r="2" fill="currentColor" opacity="0.1" />
    <circle cx="50" cy="50" r="2" fill="currentColor" opacity="0.1" />
  </g>
</svg>
